<?xml version="1.0" encoding="utf-8"?>
<!-- Generator: Adobe Illustrator 16.0.4, SVG Export Plug-In . SVG Version: 6.00 Build 0)  -->
<!DOCTYPE svg PUBLIC "-//W3C//DTD SVG 1.1//EN" "http://www.w3.org/Graphics/SVG/1.1/DTD/svg11.dtd">
<svg version="1.1" id="Layer_1" xmlns="http://www.w3.org/2000/svg" xmlns:xlink="http://www.w3.org/1999/xlink" x="0px" y="0px"
	 width="601px" height="579px" viewBox="0 0 601 579" enable-background="new 0 0 601 579" xml:space="preserve">
<path fill="#EC7600" d="M393.077,465.258c12.853,10.664,30.223,17.311,47.776,13.475c14.689-3.203,16.442-0.791,28.366,7.443
	c32,22.123,63.317,16.484,78.444-1.592c16.399-19.605-6.277-38.879,11.587-60.234c4.563-5.443,9.765-7.281,17.564-16.605
	c14.36-17.17,11-32.572-0.797-43.051c-28.972-25.723-48.312,7.607-72.209-6.877c-3.346-2.02-6.438-5.316-8.797-8.268
	c-8.421-10.543-20.608-17.602-33.939-18.996c-16.381-1.715-33.732,3.506-42.801,18.234c-7.403,12.041-8.657,18.332-11.947,22.824
	c-9.473,12.943-20.846,12.434-29.528,22.799C368.349,404.518,359.619,437.484,393.077,465.258z"/>
<path fill="#D5D100" d="M249.276,275.975c-25.391-6.443-54.446-4.094-76.663,13.294c-18.599,14.543-22.712,12.301-45.141,8.686
	c-60.217-9.736-100.673,19.572-109.812,55.58c-9.905,39.045,35.202,51.059,24.413,93.594c-2.766,10.848-8.875,16.998-13.589,35.564
	c-8.67,34.195,6.51,53.83,30.281,60.725c58.376,16.914,63.146-43.662,106.732-39.289c6.099,0.602,12.704,3.193,18.038,5.787
	c19.045,9.281,41.053,11.045,60.84,3.969c24.317-8.695,45.311-27.918,48.155-55.039c2.311-22.166-0.174-31.969,1.433-40.602
	c4.623-24.859,21.047-31.861,26.303-52.512C325.362,345.605,315.378,292.756,249.276,275.975z"/>
<path fill="#0085A2" d="M479.496,190.457c-31.944-23.247-72.943-36.18-111.45-24.202c-32.252,10.018-36.867,4.562-66.032-13.066
	c-78.286-47.319-147.32-28.803-176.418,16.619c-31.531,49.24,24.949,91.328-9.409,144.968
	c-8.765,13.688-19.982,18.906-34.972,42.312c-27.626,43.119-15.769,79.172,13.728,102.131
	c72.468,56.389,106.825-25.949,164.706,4.541c8.105,4.273,16,11.604,22.144,18.229c21.918,23.664,51.347,38.439,81.802,39.578
	c37.391,1.398,75.076-13.85,91.425-50.314c13.365-29.805,14.441-44.951,20.594-56.17c17.769-32.311,43.559-32.938,60.25-58.996
	C552.109,330.719,562.642,250.958,479.496,190.457z"/>
<path fill="#80B100" d="M471.08,142.128c-11.81-21.693,2.71-58.841,51.388-74.087c2.4-0.752,43.243-15.017,42.09,8.204
	c-1.182,23.899-19.158,49.799-35.94,65.843C513.34,156.692,483.616,165.188,471.08,142.128z"/>
<path fill="#D5D100" d="M80.14,117.103c14.597,13.85,47.392,12.957,46.186-18.017C123.772,32.802,23.615,63.493,80.14,117.103z"/>
<g>
	<polygon fill="#69798B" points="286.022,454.205 304.461,457.383 321.396,457.383 314.103,452.496 343.271,457.383 
		350.416,457.383 355.372,452.342 317.207,432.482 286.178,436.051 	"/>
	<path fill="#3777B7" d="M235.736,272.786c0.328,0.515,4.982,18.202,34.771,21.616l3.569-15.05l-21.255-10.705h-13.342
		L235.736,272.786z"/>
	<path fill="#3777B7" d="M411.535,277.026l4.805,5.318c0,0,0.471,3.06-14.89,8.955c-15.358,5.896-16.6-0.773-16.6-0.773
		l12.567-15.671L411.535,277.026z"/>
	<g>
		<path fill="#FCB295" d="M276.29,241.769c-4.814-6.02-13.603-6.994-19.628-2.178c-3.071,2.463-5.107,4.089-35.988,67.047
			c-3.085,6.287-3.922,12.773-2.718,18.602c1.328,6.467,5.169,12.117,11.227,15.799l0.646,0.391l11.531,5.393l9.166,4.289
			c1.912,0.893,3.922,1.316,5.902,1.316c5.256,0,10.289-2.98,12.66-8.049c3.264-6.988,0.255-15.299-6.732-18.562l-16.253-7.604
			c18.505-37.707,27.572-54.977,29.913-58.651C280.282,254.565,280.549,247.094,276.29,241.769z"/>
		<path fill="#EF8B6C" d="M244.908,324.242l-3.55,22.58c-9.612-4.496-20.575-7.816-23.403-21.582
			C223.705,338.205,243.15,334.379,244.908,324.242z"/>
	</g>
	<path fill="#D36853" d="M236.276,275.095c7.077-0.493,25.756,6.749,20.837,21.116l8.068-16.547l-8.688-13.861l-13.445,1.448
		l-5.783,5.458L236.276,275.095z"/>
	<path fill="#EF8B6C" d="M431.59,320.92c9.168,0.285,12.245-9.15,11.077-19.771c-1.166-10.621-9.646,2.1-11.273,7.371
		C428.217,318.811,431.59,320.92,431.59,320.92z"/>
	<path fill="#3EC6E5" d="M312.868,219.634c-0.745,2.233-1.838,5.137-3.065,8.32c-0.093,0.242-0.186,0.491-0.287,0.738
		c-4.274,10.998-9.983,24.917-8.848,26.618l-17.06,13.106l-1.062,0.819c-6.888,10.657-10.196,16.955-14.502,23.336
		c-1.101-1.57-2.216-3.023-3.333-4.371c-7.292-8.75-14.906-12.853-21.516-14.491c-2.681-0.663-5.194-0.924-7.459-0.924
		c9.818-19.629,19.288-42.976,43.317-53.805c3.569-1.607,7.993-3.01,12.703-4.184c10.643-2.637,22.769-4.083,29.899-4.021
		C322.208,210.783,313.792,216.847,312.868,219.634z"/>
	<path fill="#3777B7" d="M312.868,219.634c-0.745,2.233-1.838,5.137-3.065,8.32l-18.047-13.157
		c10.643-2.637,22.769-4.083,29.899-4.021C322.208,210.783,313.792,216.847,312.868,219.634z"/>
	<path fill="#3777B7" d="M283.608,268.417l-1.062,0.819c-6.888,10.657-10.196,16.955-14.502,23.336
		c-1.101-1.57-2.216-3.023-3.333-4.371c4.226-7.434,16.905-29.869,16.905-29.869L283.608,268.417z"/>
	
		<line fill="none" stroke="#FCB295" stroke-width="27.9264" stroke-linecap="round" stroke-miterlimit="10" x1="395.875" y1="269.331" x2="403.451" y2="305.457"/>
	
		<line fill="none" stroke="#D36853" stroke-width="27.9264" stroke-linecap="round" stroke-miterlimit="10" x1="404.398" y1="310.691" x2="410.604" y2="339.551"/>
	<path fill="#D36853" d="M413.242,283.541c-10.196-1.314-22.851,3.843-25.135,16.758l-2.171-10.862l2.171-9.464l24.049-1.55
		L413.242,283.541z"/>
	<g>
		<path fill="#69798B" d="M348.13,433.957c13.471,0,16.023,7.359,20.961,13.447c8.156,10.057,13.129,15.311,21.811,15.643
			c2.159,0.082,3.692,0.031,8.87,0.031c4.912,0,8.706-2.801,4.688-6.818c-6.403-6.404-16.045-19.186-14.824-19.168l-3.148-14.473
			L348.13,433.957z"/>
		<path fill="#69798B" d="M413.434,425.996c0,2.768-18.677,8.037-66.938,8.037c-14.987,0-13.851,0.229-34.75,0.229
			c-6.632,0-10.314,6.848-16.609,14.459c-7.141,8.637-12.755,13.426-35.214,13.426c-10.044,0-4.954-7.432,5.119-7.432
			c3.544,0-6.226-3.465,1.488-3.465c10.386,0-4.557-36.949-5.937-36.928C237.725,414.652,413.434,420.885,413.434,425.996z"/>
	</g>
	<g>
		<polygon fill="#3D3D3D" points="399.014,453.639 399.02,455.027 399.745,455.293 399.971,453.328 		"/>
	</g>
	<g>
		<g>
			<path fill="#FFB287" d="M302.04,431.047c-8.203,8.355-15.983,10.102-33.899,20.014l4.671-9.184l-4.729-11.58l-3.597-8.807
				l1.834-4.016l2.888-6.346l6.616-14.502c8.832,1.18,19.69-0.438,24.125,7.809C305.646,413.535,303.414,422.219,302.04,431.047z"/>
			<path fill="#A03224" d="M368.772,425.008c-0.683,2.707,0.906,5.35,2.216,7.967v0.008c0.298,0.602,0.584,1.209,0.818,1.811
				c0.163,0.393,0.298,0.789,0.404,1.182l-0.62-1.23l-0.41-0.805c-0.069-0.145-0.143-0.281-0.23-0.422
				c-1.954-3.525-5.69-5.74-9.761-5.74h-59.267c-0.167,0-0.336,0.006-0.496,0.012c-0.378,0.018-0.763,0.055-1.13,0.111
				c-2.911,0.428-6.399,1.838-8.261,4.193c-0.111,0.131-0.21,0.268-0.296,0.404l-2.011,0.273h0.267l-3.916,0.609
				c2.309-0.504,4.059-3.445,5.038-7.393c1.646-6.57,1.173-15.938-2.339-21.553c-4.412-8.217-15.21-6.652-24.023-7.789
				c0.348,0,1.435-0.252,2.074-3.256c0.08-0.385,0.154-0.828,0.223-1.312c1.595-11.826,10.649-16.594,10.649-16.594
				s2.917-2.879,3.103-2.896c1.111-0.094,2.606,4.23,8.937,3.746c27.715-2.146,93.994-6.812,98.313-2.68
				c2.072,1.992,4.059,5.506,5.722,9.086c2.712,5.828,4.555,11.848,4.555,11.848c-13.689-0.006-24.525,14.119-28.907,28.154
				c-0.23,0.721-0.434,1.439-0.627,2.16C368.791,424.941,368.779,424.969,368.772,425.008z"/>
			<path fill="#6D2422" d="M364.359,434.793c-0.067-0.018-0.144-0.033-0.217-0.049l-0.409-0.805
				c-0.068-0.145-0.143-0.281-0.229-0.422c-1.954-3.525-5.69-5.74-9.761-5.74h-40.65c-0.166,0-0.335,0.006-0.496,0.012
				c-0.378,0.018-0.762,0.055-1.129,0.111c-2.91,0.428-6.398,1.838-8.26,4.193c-0.111,0.131-0.212,0.268-0.299,0.404l-2.01,0.273
				h0.265l-3.914,0.609c2.309-0.504,4.058-3.445,5.039-7.393c11.99-3.988,16.558-14.012,16.558-14.012
				c8.755,6.824,23.489,5.895,28.689,0c0.044,0.85,4.194,6.818,14.441,10.766c-0.23,0.721-0.436,1.439-0.627,2.16
				c-0.006,0.039-0.019,0.066-0.025,0.105c-0.682,2.707,0.905,5.35,2.217,7.967v0.008
				C363.838,433.584,364.124,434.191,364.359,434.793z"/>
			<path fill="#FFB287" d="M405.812,451.818c-3.479-6.914-7.407-9.852-11.497-10.947c-10.621-2.861-22.34,6.645-30.199-8.99
				c-0.007,0-0.007,0-0.007,0c-0.673-1.338-4.631-7.811-2.784-15.205c3.873-14.738,15.135-22.096,29.561-22.092l11.046,42.385
				L405.812,451.818z"/>
			<path fill="#F58D6C" d="M399.845,447.402c-10.62-2.861-31.115,0.822-35.631-17.734c6.485,0.246,8.691-6.693,11.524-12.264
				c3.839-7.539,9.302-13.684,15.147-15.828L399.845,447.402z"/>
			<path fill="#FFB287" d="M302.04,431.049c-1.57,3.502-10.142,8.174-16.21,11.127c-3.519,1.721-6.2,2.855-6.2,2.855l-6.82-3.154
				l-3.346-1.551l-1.377-10.029l-1.769-12.82l-0.993-7.193c-0.032-0.225,0.192-0.4,0.409-0.328
				c1.006,0.361,9.247-16.172,10.543-15.744c27.145,1.639,28.237,20.068,26.904,30.379c-0.273,2.129-0.653,3.91-0.925,5.125
				C302.182,430.162,304.521,425.52,302.04,431.049z"/>
			<path fill="#F58D6C" d="M302.04,431.049c-1.57,3.502-10.142,8.174-16.21,11.127l-1.433-1.031l1.861-17.705l3.17-4.473
				c4.121,8.637,9.042,8.863,13.403,8.074c-0.272,2.129-0.303,1.459-0.574,2.674C302.182,430.162,304.521,425.52,302.04,431.049z"/>
			<g>
				<path fill="#6D2422" d="M367.362,437.566c0.462,0,0.375-0.158,0.135-0.508c-2.51-3.672-3.689-11.043-3.047-15.756
					c1.745-12.781,14.104-25.812,29.342-23.082c1.332,0.238-2.61-5.73-5.942-5.334c-18.821,2.244-27.993,13.947-27.993,28.398
					c0,5.373,0.549,9.604,3.95,13.807C364.777,436.289,366.566,437.566,367.362,437.566z"/>
			</g>
		</g>
		<g>
			<path fill="#6D2422" d="M297.996,436.393c-0.461,0-0.64-0.68-0.319-0.961c3.583-3.135,4.255-10.426,4.255-14.84
				c0-12.902-11.364-23.809-26.113-23.705c-1.353,0.008-0.316-5.09,3.019-4.693c18.82,2.244,27.992,13.945,27.992,28.398
				c0,5.371-1.208,9.041-4.61,13.24C301.248,435.029,298.793,436.393,297.996,436.393z"/>
		</g>
		<path fill="#86A8A7" d="M390.238,376.387v0.006c-20.903,15.908-91.649,16.838-112.257,0.881c1.11-0.094,5.429-0.455,11.76-0.939
			c27.182,2.678,82.786,2.938,98.574-1.977L390.238,376.387z"/>
		<path fill="#6D2422" d="M326.402,420.197c0-15.916-1.565-31.832-7.307-32.354l18.552,0.551l2.584,28.672l-3.393,8.611
			L326.402,420.197z"/>
	</g>
	<g>
		<g>
			<g>
				<path fill="#FC504C" d="M374.451,246.32v118.465h-81.746v-114.8c0-4.781,0.631-9.006,1.737-12.734
					c2.368-7.979,6.909-13.675,12.03-17.667c3.647-2.859,7.601-4.849,11.271-6.187c0.879-0.321,1.749-0.604,2.59-0.851
					c3.755-1.123,7.036-1.552,9.135-1.552c0.981,0,1.956,2.922,2.948,2.922h9.627c0.474,0,0.947,0.006,1.415,0.034
					c2.069,0.09,2.566,6.818,4.518,7.281c0.941,0.225,1.879,0.462,2.792,0.709c0.473,0.131,0.935,0.266,1.398,0.401
					c3.863,1.139,7.482,2.565,10.636,4.405c4.408,2.565,7.899,5.938,9.873,10.466C373.82,239.84,374.451,242.85,374.451,246.32z"/>
				<path fill="#3EC6E5" d="M389.175,373.174H276.49l0.354-7.918l2.768-61.941l2.637-39.787l-0.633-5.195l1.248-27.901
					c0-1.21,8.856-4.301,19.977-7.602c3.432-1.018,7.087-2.061,10.761-3.072c8.372-2.302,16.85-4.444,23.116-5.84
					c5.238-1.167,8.937-1.812,9.756-1.595c0.305,0.075,0.614,0.154,0.925,0.248c0.335,0.1,0.677,0.198,1.023,0.305
					c0,0,0,0.005,0.008,0.005c1.892,0.583,3.884,1.328,5.876,2.266c0.012,0,0.024,0.012,0.03,0.012
					c1.962,0.914,3.923,2.012,5.822,3.309c5.325,3.655,10.071,8.936,12.518,16.433c0.284,0.881,0.899,1.793,1.655,2.737
					c2.154,2.705,5.939,6.02,5.939,9.259l1.1,19.475l0.727,12.907l0.706,12.563l0.329,4.164l0.497,6.361l1.433,18.312l0.199,2.52
					l1.713,21.861l1.539,19.6L389.175,373.174z"/>
				<path fill="#FFFFFF" d="M352.491,225.913c0,10.839-8.789,19.626-19.63,19.626c-10.84,0-19.625-8.787-19.625-19.626
					c0-1.06,0.083-2.098,0.247-3.113c0.563-3.542,2.072-6.767,4.262-9.404c4.818-1.758,9.155-2.398,11.722-2.398
					c0.98,0,1.958,2.916,2.953,2.916h2.294c0.998,0,1.978-2.916,2.953-2.916c2.205,0,5.725,0.471,9.734,1.725
					c2.404,2.646,4.092,5.958,4.765,9.621C352.383,223.5,352.491,224.691,352.491,225.913z"/>
				<path fill="#FCB295" d="M346.163,216.955c7.749,14.605-6.921,29.275-21.524,21.527c-2.156-1.145-3.935-2.924-5.078-5.079
					c-7.746-14.603,6.921-29.269,21.523-21.525C343.24,213.022,345.019,214.8,346.163,216.955z"/>
			</g>
			<path fill="#FFFFFF" d="M335.72,255.308l-0.062,0.063c-1.043,1.042-2.732,1.042-3.775,0l-0.063-0.063
				c-1.042-1.042-1.042-2.732,0-3.775l0.063-0.062c1.043-1.043,2.732-1.043,3.775,0l0.062,0.062
				C336.762,252.576,336.762,254.266,335.72,255.308z"/>
			<path fill="#FFFFFF" d="M335.771,262.743l-0.062,0.063c-1.042,1.042-2.733,1.042-3.776,0l-0.062-0.063
				c-1.042-1.042-1.042-2.732,0-3.775l0.062-0.062c1.043-1.042,2.734-1.042,3.776,0l0.062,0.062
				C336.814,260.011,336.814,261.701,335.771,262.743z"/>
			<path fill="#FFFFFF" d="M335.873,270.929l-0.062,0.063c-1.042,1.043-2.732,1.043-3.774,0l-0.063-0.063
				c-1.042-1.042-1.042-2.732,0-3.774l0.063-0.062c1.042-1.043,2.732-1.043,3.774,0l0.062,0.062
				C336.917,268.197,336.917,269.887,335.873,270.929z"/>
			<g>
				<path fill="#3EC6E5" d="M390.416,376.244c-12.404,4.146-26.281,6.914-40.809,8.148c-1.483,0.123-2.973,0.236-4.475,0.33
					c-6.02,0.369-12.145,0.49-18.309,0.328c-17.413-0.459-35.137-3.104-51.874-8.197l1.781-11.631
					c0.037,0.012,0.074,0.018,0.111,0.033c12.387,3.307,25.91,5.41,40.028,6.213c3.289,0.184,6.609,0.303,9.953,0.346
					c6.033,0.08,12.146-0.068,18.309-0.459c14.385-0.9,29.012-3.107,43.379-6.697c0.1-0.025,0.205-0.049,0.304-0.074
					L390.416,376.244z"/>
			</g>
		</g>
		<g>
			<g>
				<path fill="#86A8A7" d="M356.1,399.59c0.057-0.033,0.117-0.064,0.171-0.096C356.147,399.469,356.097,399.508,356.1,399.59z"/>
			</g>
		</g>
		<polygon fill="#3777B7" points="385.061,320.678 343.581,304.902 350.276,280.934 383.628,302.365 		"/>
	</g>
	<g>
		<path fill="#3777B7" d="M349.607,384.393c-24.346,2.062-50.528-0.197-74.657-7.539l1.781-11.631
			c0.037,0.012,0.074,0.018,0.111,0.033l2.768-61.941l1.825-40.923l-1.105-1.732c0.078-0.098,0.567-1.004,1.042-1.877
			c0.554-1.018,1.62-1.653,2.78-1.653l0,0c1.663,0,3.042,1.288,3.157,2.949l1.348,19.585l1.242,45.303
			c0.267,6.318,1.246,11.908,2.806,16.887c3.071,9.811,8.396,17.201,14.919,22.93c2.879,2.525,5.987,4.734,9.246,6.686
			c0.998,0.594,2.005,1.158,3.022,1.705C329.557,378.379,340.199,381.588,349.607,384.393z"/>
	</g>
	<path fill="#3EC6E5" d="M416.34,282.344c-11.606-0.578-19.772,1.782-24.881,4.104c-4.486,2.047-6.608,4.078-6.608,4.078
		l-2.755-11.249l-1.429-5.828l-3.283-2.991l-31.426-28.609c16.471-10.755,2.867-28.454,2.471-28.969
		c-0.008,0-0.008-0.005-0.008-0.005s14.473,1.73,29.684,9.601C403.827,235.787,408.303,254.578,416.34,282.344z"/>
	<rect x="319.528" y="204.283" fill="#EF8B6C" width="27.273" height="16.903"/>
	<ellipse fill="#FCB295" cx="333.165" cy="221.186" rx="13.637" ry="6.041"/>
	<g>
		<path fill="#681507" d="M314.721,126.849c-14.992,24.263-20.89,44.882-24.294,56.876c-5.543-3.207-11.484-13.979-8.226-22.681
			c-3.667,5.385-2.033,9.869-3.416,15.062c-6.594-3.097-13.719-11.344-12.364-23.03c0.35,5.074,0.81,8.199-0.063,12.73
			c-6.77-6.449-9.484-23.288-7.441-40.199L314.721,126.849z"/>
		<path fill="#681507" d="M352.082,127.098c15.537,23.938,21.903,44.428,25.578,56.346c5.47-3.323,5.078-13.167,1.623-21.797
			c3.789,5.304,8.344,8.771,9.844,13.934c6.522-3.235,13.457-11.632,11.837-23.287c-0.232,5.081-0.623,8.213,0.353,12.727
			c6.528-6.159,8.77-19.452,6.527-40.348L352.082,127.098z"/>
		<ellipse fill="#681507" cx="333.325" cy="112.016" rx="75.67" ry="73.089"/>
		<circle fill="#EF8B6C" cx="333.396" cy="156.224" r="54.567"/>
		<path fill="#FCB295" d="M387.963,149.177c0.001,30.136-24.431,57.635-54.567,57.635s-54.567-27.499-54.567-57.635
			c0-30.139,24.431-54.568,54.568-54.568C363.532,94.609,387.963,119.039,387.963,149.177z"/>
		<circle fill="#FCB295" cx="333.324" cy="110.708" r="54.568"/>
		<polyline fill="#681507" points="281.441,132.262 271.969,126.198 271.969,112.516 290.454,117.984 		"/>
		<path opacity="0.69" fill="#F9C8A7" d="M378.363,123.46c-12.609-4.308-20.129-13.618-23.129-26.028
			c-0.319-1.319-2.039-1.638-2.795-0.513c-10.63,15.797-31.553,24.936-62.569,27.816c-4.783,0.444-12.514-1.764-12.514-1.764
			l80.229-56.534l20.871,40.836l13.439,13.854C391.896,121.128,384.889,125.688,378.363,123.46z"/>
		<path fill="#681507" d="M408.822,106.055c0.158-5.034-0.832-10.334-1.561-13.325c0-0.02-0.011-0.03-0.011-0.048
			c-5.341-22.074-22.45-40.161-45.082-48.608c-0.022-0.01-0.054-0.019-0.074-0.028c-8.841-3.078-24.413-8.452-52.263-1.753
			c-0.273,0.084-0.547,0.162-0.82,0.247c-29.863,9.155-51.357,34.728-51.357,64.83c0,2.602,10.645,22.891,13.641,17.866
			c27.884-46.758,85.552-40.124,85.797-40.934c0.041,0.087,1.069,33.869,30.169,40.643
			C398.359,127.527,408.77,107.716,408.822,106.055z"/>
		<circle fill="#E87B31" cx="322.243" cy="154.413" r="1.915"/>
		<circle fill="#E87B31" cx="345.406" cy="152.497" r="1.915"/>
		<circle fill="#E87B31" cx="329.062" cy="148.437" r="1.915"/>
		<circle fill="#E87B31" cx="307.575" cy="155.254" r="1.916"/>
		<circle fill="#E87B31" cx="357.222" cy="156.024" r="1.916"/>
		<circle fill="#E87B31" cx="301.405" cy="149.508" r="1.915"/>
		<circle fill="#E87B31" cx="365.009" cy="151.423" r="1.916"/>
		<ellipse fill="#FCB295" cx="387.34" cy="148.396" rx="9.627" ry="13.222"/>
		<ellipse fill="#FCB295" cx="279.695" cy="148.396" rx="9.627" ry="13.222"/>
		<circle fill="#ED807A" cx="301.239" cy="165.508" r="7.62"/>
		<circle fill="#ED807A" cx="366.501" cy="165.405" r="7.619"/>
		<path fill="#F19674" d="M331.549,160.656c0.378-0.557,0.974-0.868,1.595-0.921c0.144-0.031,0.293-0.048,0.445-0.048h6.519
			c0.111,0,0.221,0.016,0.328,0.032c0.693-0.028,1.387,0.274,1.829,0.876c0.699,0.956,0.491,2.299-0.465,3.001
			c-1.249,0.913-3.006,1.313-4.748,1.313c-1.89,0-3.761-0.471-4.938-1.271C331.136,162.971,330.882,161.635,331.549,160.656z"/>
		<circle fill="#231F20" cx="314.229" cy="145.63" r="3.76"/>
		<circle fill="#231F20" cx="356.525" cy="145.63" r="3.759"/>
		<path fill="none" stroke="#843232" stroke-width="3.85" stroke-linecap="round" stroke-miterlimit="10" d="M366.223,135.584
			c-4.811-2.996-11.407-4.345-18.084-0.699"/>
		<path fill="none" stroke="#843232" stroke-width="3.85" stroke-linecap="round" stroke-miterlimit="10" d="M303.492,135.59
			c4.812-3,11.413-4.352,18.092-0.705"/>
		<path fill="#A82727" d="M351.299,176.864c0,4.564-2.489,8.627-6.395,11.286c-2.925,1.992-6.627,3.173-10.671,3.173
			c-4.046,0-7.748-1.181-10.672-3.171c-3.905-2.66-6.395-6.724-6.396-11.288H351.299z"/>
		<path fill="#F96458" d="M344.904,188.15c-2.925,1.992-6.627,3.173-10.671,3.173c-4.046,0-7.748-1.181-10.672-3.171
			c2.114-2.366,6.098-3.967,10.672-3.967C338.807,184.185,342.804,185.785,344.904,188.15z"/>
		<g>
			<path fill="#F58D6C" d="M290.602,121.573l-1.117,5.057c4.336-2.16,21.543-17.672,21.702-24.522
				c0.027-1.112-6.713,4.079-6.033,5.044c20.261,28.789,40.816,18.83,40.816,18.83c-1.19-2.311-2.978-2.997-2.512-6.538
				c1.974,2.992,25.054,8.413,36.486,6.307c4.657-0.857-0.298-8.251-0.298-8.251l-66.369-38.353l-20.548,32.646l-15.461,10.102
				C283.918,120.608,288.015,124.753,290.602,121.573z"/>
			<path fill="#681507" d="M262.702,101.994c0.247-2.932,0.714-5.826,1.391-8.64c-0.001-0.019,0.009-0.027,0.009-0.045
				c4.954-20.764,20.833-37.778,41.835-45.725c0.018-0.01,0.048-0.018,0.068-0.029c8.202-2.893,22.652-7.949,48.494-1.649
				c0.255,0.081,0.508,0.152,0.763,0.234c27.711,8.611,47.656,32.668,47.656,60.986c0,2.448-3.521,16.203-12.381,16.449
				c-58.954,1.633-80.508-37.754-79.892-38.149c6.727-4.322-9.682,29.247-18.431,34.926c0.628-3.203,0.628-3.869,0.628-6.965
				c1.758,0.354-6.667,10.078-10.193,10.274C272.146,124.24,262.562,103.551,262.702,101.994z"/>
			<path fill="#681507" d="M339.54,120.73c-30.433,4.478-33.281-19.434-29.41-43.646C340.198,87.204,324.278,105.84,339.54,120.73z"
				/>
		</g>
		<path fill="#681507" d="M374.573,119.219c6.229,4.33,8.637,6.847,9.951,10.712l10.191-3.732v-13.683L374.573,119.219z"/>
		<path fill="#681507" d="M290.454,117.984c-6.468,1.439-7.305,9.157-9.012,14.278"/>
	</g>
	<path fill="#3777B7" d="M345.133,347.928v36.795c-6.02,0.369-12.145,0.49-18.309,0.328v-19.436h-20.168l-17.065-9.619
		l-4.655-34.754l0.378-38.329l37.788,4.508l18.617,19.239c0,15.203-0.931,17.998-4.965,17.998c-4.035,0-14.273,0-14.273,0v14.754
		L345.133,347.928z"/>
	<path fill="#3777B7" d="M384.851,290.525l-2.755-11.249c0.83,14.754,0.613,11.377,1.035,16.727l-3.556,0.209l-8.856-4.703
		c6.666,0.248,7.04-6.296,6.938-10.361c-0.091-3.593-0.187-7.337-0.264-10.333c-0.054-2.161,1.492-4.034,3.626-4.39
		c0.016-0.002,0.032-0.004,0.046-0.006c2.117-0.354,4.172,0.896,4.835,2.937l5.56,17.091
		C386.973,288.495,384.851,290.525,384.851,290.525z"/>
	<path fill="#3777B7" d="M346.271,252.049c-0.196-0.152-0.401-0.277-0.61-0.385v-0.002c-5.225-6.785-16.556-11.411-27.584-11.411
		c-10.998,0-22.218,4.566-27.481,11.28c-0.324-0.062-0.652-0.106-0.99-0.106c-4.009,0-6.285,3.527-10.061,10.554
		c-2.817,5.242,6.568,10.316,11.007,9.51v0.185c5.247,6.743,15.603,11.332,27.524,11.332c11.817,0,22.092-4.512,27.381-11.156
		c0.201-0.09,0.398-0.207,0.59-0.337c3.074-0.38,5.518-4.455,5.518-9.396c5.323,0-5.323,0,0,0
		C351.564,255.353,348.566,252.47,346.271,252.049z"/>
	<g>
		<g>
			<path fill="#679E28" d="M273.354,397.896c-6.998,1.406-10.513,7.484-7.229,23.799c3.281,16.314,11.614,28.4,18.61,26.994
				c6.998-1.408,10.009-15.775,6.728-32.09C288.18,400.283,280.349,396.49,273.354,397.896z"/>
			<path fill="#8FCE15" d="M286.611,446.795l-3.133,2.615c4.586-4.357,7.434-10.334,7.75-18.084
				c0.207-5.08-1.037-10.096-3.176-14.709c-4.449-9.598-3.888-17.369-5.86-29.906c-1.994-9.658-15.327-22.133-27.764-16.938l0,0
				c-12.437,5.199-21.213,16.303-17.585,27.918c4.686,15.908,11.445,31.141,20.329,43.088
				C265.224,450.08,275.056,452.648,286.611,446.795z"/>
			<path fill="#FFFFFF" d="M280.845,455.553l-3.202,2.596c11.432-7.418,11.822-17.984,7.188-30.641
				c-6.848-13.367-6.416-28.201-8.547-44.031c-1.918-10.715-14.58-19.391-27.238-14.756l0,0
				c-12.656,4.637-21.667,16.031-18.113,29.025c4.58,17.77,11.27,34.977,20.146,48.77C259.14,457.35,269.075,460.98,280.845,455.553
				z"/>
			<path fill="#D3D3D3" d="M277.643,458.148L277.643,458.148c11.432-7.418,8.621-15.391,3.985-28.049
				c-6.85-13.365-6.416-28.199-8.546-44.029c-1.92-10.715-14.582-19.391-27.239-14.756l-0.621,0.621
				c-12.656,4.635-18.636,18.129-15.083,31.123c4.582,17.77,8.859,32.256,17.736,46.049
				C255.937,459.941,265.872,463.572,277.643,458.148z"/>
		</g>
		<g>
			<g>
				<path fill="#679E28" d="M390.492,398.447c6.998,1.408,10.512,7.484,7.23,23.801c-3.281,16.314-11.615,28.4-18.612,26.99
					c-6.998-1.406-10.009-15.773-6.727-32.088S383.496,397.039,390.492,398.447z"/>
			</g>
			<path fill="#8FCE15" d="M377.233,447.348l3.134,2.613c-4.586-4.355-7.434-10.334-7.75-18.084
				c-0.207-5.082,1.037-10.096,3.175-14.709c4.45-9.6,3.891-17.369,5.861-29.906c1.994-9.656,15.327-22.133,27.765-16.938l0,0
				c12.437,5.199,21.214,16.303,17.587,27.918c-4.688,15.908-11.445,31.143-20.331,43.086
				C398.621,450.629,388.789,453.197,377.233,447.348z"/>
			<path fill="#FFFFFF" d="M383,456.105l3.202,2.594c-11.432-7.418-11.822-17.986-7.186-30.643
				c6.847-13.365,6.414-28.199,8.544-44.029c1.919-10.715,14.582-19.391,27.24-14.756l0,0c12.657,4.635,21.666,16.029,18.113,29.023
				c-4.582,17.771-11.27,34.979-20.146,48.771C404.707,457.9,394.771,461.531,383,456.105z"/>
			<path fill="#D3D3D3" d="M386.202,458.699L386.202,458.699c-11.793-6.611-8.62-15.391-3.984-28.047
				c6.85-13.367,6.415-28.201,8.546-44.031c1.919-10.715,14.583-19.391,27.238-14.754l0,0c12.658,4.633,19.258,18.748,15.703,31.74
				c-4.579,17.771-8.857,32.258-17.735,46.051C407.909,460.492,397.974,464.125,386.202,458.699z"/>
		</g>
	</g>
	<g>
		<g>
			<path fill="#EF8B6C" d="M262.595,313.037c-10.787-2.754-19.479,0.996-20.887,8.033l11.823,0.215l9.338,7.797L262.595,313.037z"/>
		</g>
		
			<ellipse transform="matrix(0.9698 -0.2439 0.2439 0.9698 -63.1802 104.9418)" fill="#B72C29" cx="392.13" cy="307.571" rx="6.273" ry="5.602"/>
		<path fill="#35212E" d="M351.712,440.805c0.659-0.883,3.215-3.607,1.813-5.008c-1.401-1.398-3.131-2.209-8.488-2.209
			s-10.385,5.375-10.385,5.816s0.166,2.135,0.989,2.062c0.824-0.074,6.346,1.324,6.346,1.324s6.841,0.957,7.252,0.223
			C349.652,442.275,351.712,440.805,351.712,440.805z"/>
		<g>
			<path fill="#35212E" d="M342.872,434.914c0,1.84-0.635,4.785-3.368,4.785l-1.073-0.055c0,0-1.615-0.129-1.615-0.754
				c0-1.352,1.615-4.176,1.615-4.344c0-0.223,1.903-0.885,1.903-0.885L342.872,434.914z"/>
			<path fill="#35212E" d="M350.601,438.08c-0.495,0-2.268,0.295-2.103-0.404c0.164-0.699-0.165-0.773-2.473-0.773
				c-2.307,0-3.46-0.111-3.626,0.662c-0.165,0.771-1.896,1.178-2.349,1.178s-1.813-0.957-1.649-1.51
				c0.166-0.551,1.402-1.914,1.402-1.914l2.843-0.109c0,0,4.533-0.037,4.904,0.074c0.371,0.109,2.884,0,2.884,0l1.112,0.551
				L350.601,438.08z"/>
		</g>
		<path fill="#F8F4F5" d="M351.837,439.883c0.824-1.178,2.522-3.158,0.425-3.693c-1.453-0.369-7.894-0.213-9.671-0.213
			c-4.948,0-4.975,5.682-9.461,3.984c-2.791-0.875-3.211-4.193-3.192-7.205v-40.75c0.04-6.484,5.936-6.414,13.185-6.414
			c0.024,0,0.051,0,0.076,0c7.282,0.037,13.152,0.039,13.11,6.545l-0.108,40.75c-0.02,2.957-1.355,5.781-3.581,7.439
			L351.837,439.883z"/>
		<path opacity="0.4" fill="#6F8BC1" d="M343.122,385.592c0.024,0,0.051,0,0.076,0c0.404,0.002,0.805,0.004,1.199,0.008
			c1.778,0.545,3.03,0.93,3.03,0.93c-0.99,1.275,0,1.865-3.078,1.865c-3.076,0-5.055,0-6.702,0c-1.649,0-3.407-0.1-3.407,8.342
			c0,8.443,0,33.859,0,35.527s0.55,1.963,4.176,1.963s9.012,0,11.209,0c1.963,0,6.025,0.705,5.698,2.676
			c-0.616,1.361-0.779,1.936-1.946,2.805l-1.128-0.41c0.825-1.178,1.857-2.594-0.239-3.129c-1.453-0.371-7.642-0.191-9.419-0.191
			c-4.948,0-4.975,5.682-9.461,3.984c-2.791-0.875-3.211-4.193-3.192-7.205v-40.75C329.978,385.521,335.873,385.592,343.122,385.592
			z"/>
		<path fill="#B72C29" d="M344.093,355.318c2.604,0.418,4.575,2.457,4.563,4.9l-0.083,25.588c-0.012,2.73-2.493,2.732-5.546,2.732
			c-0.007,0-0.015,0-0.023,0c-3.064-0.01-5.536-0.037-5.525-2.773c0,0,0.068-7.32,0.068-8.531c0-1.055,4.322-19.764,5.696-21.699
			C343.443,355.254,344.063,355.314,344.093,355.318z"/>
		<path fill="#F2493D" d="M344.437,343.572c3.483,0.557,6.119,3.281,6.104,6.551l-0.11,32.375c-0.018,3.65-3.334,2.762-7.416,2.762
			c-0.012,0-0.021,0-0.033,0c-4.096-0.016-7.401,0.844-7.386-2.814c0,0,0.091-22.336,0.091-23.955c0-1.41,5.775-12.043,7.614-14.627
			C343.571,343.484,344.399,343.566,344.437,343.572z"/>
		<path fill="#B72C29" d="M335.687,358.49c0-1.01,2.639-6.074,4.705-9.82c-0.026,0.104-0.087,0.246-0.189,0.445
			c-0.881,1.668-1.045,3.582-1.045,5.84s0,19.689,0,23.521c0,3.826-0.191,5.793,1.841,5.891c0.146,0.008,0.301,0.018,0.462,0.025
			c0.491,0.012,0.996,0.014,1.518,0.018c0.01,0,0.021,0,0.033,0c3.406,0,6.312-0.004,7.418-1.875
			c-0.024,2.354-1.438,3.176-3.544,3.461v0.002c-0.003,0-0.005,0-0.007,0c-0.275,0.037-0.561,0.066-0.857,0.086
			c-0.012,0-0.022,0.002-0.036,0.004c-0.294,0.021-0.598,0.033-0.91,0.045c-0.015,0-0.029,0-0.043,0
			c-0.313,0.01-0.634,0.016-0.964,0.018c-0.012,0-0.026,0-0.038,0c-0.332,0.002-0.671,0.002-1.015,0.002c-0.012,0-0.021,0-0.033,0
			c-4.096-0.014-7.401-0.049-7.386-3.707C335.596,382.445,335.687,360.109,335.687,358.49z"/>
		<g>
			<g>
				<g>
					<path fill="#F8F4F5" d="M361.469,286.093c-0.212-2.553-0.734-8.753,0.637-9.174c3.181-0.982,5.08,1.112,6.931,3.429
						l25.875,21.953c0,0-0.793-0.25-1.767,0.305c-3.174,1.805-6.2,6.688-6.457,9.09l-2.747-3.178l-27.847-16.523
						C355.22,290.9,361.658,288.375,361.469,286.093z"/>
					<path fill="#CED2E3" d="M361.687,281.289c2.185,0.714,5.147,2.083,5.147,2.083l-0.456,0.075
						c0.624,2.245-2.524-0.814,1.771,4.187c4.152,4.833,18.314,13.013,22.226,17.212c-1.441,1.938-2.973,4.016-3.24,5.367
						l-2.747-3.178l-25.21-15.738c-0.873-1.096,2.928-4.404,2.738-6.686C361.847,283.78,361.745,282.565,361.687,281.289z"/>
					<path fill="#B72C29" d="M362.382,280.289l6.775,1.902c0.18,0.621,0.311,3.069-0.939,4.498
						c-1.251,1.427-7.021,7.243-12.87,3.831C349.499,287.103,362.382,280.289,362.382,280.289z"/>
					<ellipse fill="#F2493D" cx="360.356" cy="280.934" rx="10.078" ry="9.003"/>
					<path fill="#B72C29" d="M352.288,286.329c0.397-3.941,0.879-8.575,0.879-8.575l2.546-4.811
						c1.392-0.646,2.968-1.014,4.643-1.014c0.313,0,0.624,0.015,0.93,0.041c-0.248,2.278-1.03,11.262-1.03,13.076
						c0,3.036,5.019,3.605,7.839,1.656c-2.503,3.234-6.776,3.749-8.41,3.749C356.384,290.451,354.127,288.519,352.288,286.329z"/>
					<g>
						<path fill="#CCD0DB" d="M298.649,335.758c0.77-1.135,2.522-2.066,3.894-2.066h26.532c1.374,0,3.125,0.932,3.896,2.066
							l1.497,2.217c0.77,1.139,0.924,3.088,0.346,4.332l-6.382,13.719c-0.578,1.246-2.175,2.264-3.549,2.264h-17.017
							c-1.373,0-3.02-0.994-3.66-2.209l-7.29-13.828c-0.64-1.215-0.535-3.139,0.234-4.277L298.649,335.758z"/>
						<path fill="#F2493D" d="M337.7,286.37c-0.41,2.505,6.918,4.857,9.724,5.222l4.683,0.613c2.805,0.367,5.436-1.381,5.847-3.889
							l2.496-15.226c0.412-2.506-1.548-4.857-4.354-5.224l-4.683-0.613c-2.803-0.367-10.804,1.383-11.214,3.888L337.7,286.37z"/>
						<g>
							<path fill="#B72C29" d="M345.355,267.344c-1.074-0.863-7.194-1.823-12.383-1.823c-3.669,0-3.655,1.92-3.655,1.92
								L345.355,267.344z"/>
							<path fill="#F2493D" d="M308.416,286.37c0.411,2.505-6.917,4.857-9.722,5.222l-4.114,2.17
								c-2.805,0.369-6.005-2.938-6.416-5.446l-8.505-14.82c-0.65-2.739,0.99-5.949,4.836-5.949h10.207
								c2.806-0.367,10.805,1.09,11.216,3.595L308.416,286.37z"/>
							<path fill="#A52323" d="M297.68,289.995c-1.917,0-2.237,0-2.875-3.425c-0.639-3.426-1.804-10.391-2.236-12.227
								c-0.853-3.616-3.249-4.471-5.325-4.471c-2.078,0-2.007,0-3.284,0c-1.278,0-3.994,0.427-3.835,3.282
								c0.16,2.855,1.598,7.278,1.598,7.278l6.092,7.598l2.876,5.993l3.174,1.395L297.68,289.995z"/>
							<path fill="#F2493D" d="M350.992,310.752c-0.575,3.299-3.786,5.998-7.135,5.998h-40.414c-3.348,0-6.451-2.715-6.895-6.033
								l-1.077-8.076c-0.442-3.32,0.686-6.615,2.511-7.32c1.823-0.707,3.358-4.025,3.413-7.375l0.121-7.417
								c0.056-3.349-1.296-7.772-3.001-9.828c-1.706-2.056-0.36-3.74,2.989-3.74h43.647c3.35,0,7.511,1.359,9.248,3.022
								c1.736,1.662,2.688,5.722,2.115,9.022L350.992,310.752z"/>
							<path fill="#B72C29" d="M336.276,277.649c-0.349-1.714-0.826-6.544-1.179-7.943c-0.734-2.914-1.575-2.755-4.119-2.755
								l4.983-0.974l2.567,6.954l0.283,3.059L336.276,277.649z"/>
							<path fill="#F2493D" d="M305.743,267.344c-1.073-0.863-8.153-1.823-13.341-1.823c-4.949,0-5.587,2.735-5.587,2.735
								L305.743,267.344z"/>
							<path fill="#F2493D" d="M296.615,276.273c-0.35-1.716-0.777-5.168-1.129-6.566c-0.735-2.914-2.326-3.61-3.058-3.61
								l3.349-0.108l3.141,6.943l0.283,3.059L296.615,276.273z"/>
							<path fill="#FFFFFF" d="M314.939,268.542c-0.445-0.472-0.867-0.922-1.242-1.322c-0.941-1.003-2.453-1.7-4.279-1.7
								c-1.735,0-16.263,0-16.922,0c1.857,0,3.749,0.694,4.483,3.611c0.352,1.398,0.78,4.849,1.13,6.564l2.708,19.292
								c0,0,16.785-2.564,17.197-5.708l-0.991-10.559C317.438,275.578,316.498,270.207,314.939,268.542z"/>
							<ellipse fill="#F2493D" cx="283.269" cy="280.934" rx="10.077" ry="9.003"/>
							<path fill="#A52323" d="M283.269,271.929c5.565,0,10.078,4.033,10.078,9.005c0,3.565-2.2,6.846-5.566,8.304l-0.6-2.357
								c2.216-1.612,2.493-6.679,1.204-9.429c-2.243-4.79-6.865-6.108-10.721-3.983c-0.047,0.027-0.091,0.045-0.137,0.069
								C279.156,272.524,281.134,271.929,283.269,271.929z"/>
							<path fill="#B72C29" d="M297.89,302.502c1.384,0.762,3.833,3.045,3.726-0.094c-0.105-3.141,4.045-3.902,6.177-3.902
								c2.131,0,31.307,0,35.033,0c6.771,0,9.797,2.285,9.477,4.377l0.639-3.807l-12.671-6.088l-34.075-0.475l-5.432,3.141
								c0,0-3.087,1.234-2.98,1.521C297.89,297.461,297.89,302.502,297.89,302.502z"/>
						</g>
						<path fill="#6BA8A7" d="M297.369,298.594c0.637-0.146,1.17-0.262,1.17-0.262S297.921,298.357,297.369,298.594z"/>
						<g>
							<path fill="#B72C29" d="M322.369,339.416c-5.472,0-9.906-1.361-9.906-6.248v-16.262c0-2.68,2.566-1.139,9.906-1.139
								c7.339,0,9.905-1.635,9.905,1.139v16.262C332.274,338.055,327.841,339.416,322.369,339.416z"/>
						</g>
						<g>
							<path fill="#F2493D" d="M324.655,321.379c4.207,0,7.619,1.045,7.619,4.807v12.605c0,2.062-1.974,0.879-7.619,0.879
								c-5.645,0-7.619,1.256-7.619-0.879v-12.605C317.036,322.424,320.447,321.379,324.655,321.379z"/>
						</g>
						<path fill="#F8F4F5" d="M308.871,335.758c0.769-1.135,2.522-2.066,3.895-2.066h26.532c1.373,0,3.126,0.932,3.895,2.066
							l1.497,2.217c0.771,1.139,0.926,3.088,0.346,4.332l-6.38,13.719c-0.58,1.246-2.177,2.264-3.549,2.264h-17.018
							c-1.374,0-3.021-0.994-3.661-2.209l-7.289-13.828c-0.641-1.215-0.534-3.139,0.234-4.277L308.871,335.758z"/>
						<path fill="#A52323" d="M301.191,297.271c0.425,3.996,1.08,12.879,1.554,14.936c0.816,3.543,46.779,4.482,48.065-0.375
							c0.251-0.943-0.925,4.65-4.333,5.223s-44.648,0.193-44.648,0.193s0.449,0-2.467,0s-3.347-2.975-3.347-2.975l-2.506-15.047
							L301.191,297.271z"/>
					</g>
					<path fill="#A52323" d="M289.888,280.385c0.253,1.281-0.753-1.523-0.675,0.98c0.084,2.711-3.563,3.386-3.898,1.55
						c-1.828-10.041-6.263-7.464-10.648-5.393c-4.337,2.049,2.564,5.33,4.596,10.096c2.031,4.764,8.701,1.583,8.701,1.583
						s2.26-2.262,2.43-2.79C290.562,285.884,289.888,280.385,289.888,280.385z"/>
				</g>
				<path fill="#FFFFFF" d="M354.71,268.542c-0.442-0.472-0.865-0.922-1.24-1.322c-0.941-1.003-2.453-1.7-4.279-1.7
					c-1.734,0-14.839,0-15.498,0c0.733,0,2.324,0.694,3.06,3.611c0.352,1.398,0.78,4.849,1.129,6.564
					c0.187,0.916-2.413,1.625-8.666,1.625s-12.29-0.709-12.139-1.625l-17.164,12.632l-9.814,4.603l2.982,7.439
					c0,0,0.528,1.432,0.488,0.961c-0.162-1.828,11.056-4.15,14.6-4.15h34.994c3.544,0,9.572,1.295,9.41,3.123
					c-0.147,1.668,1.315,0.551,1.729-2.594l2.493-18.99C357.209,275.578,356.271,270.207,354.71,268.542z"/>
				<path fill="#C1C7DD" d="M299.754,288.402l0.098,0.02c0,0-0.058,1.197,0.759,5.159c0.637,3.09,3.335,3.576,6.594,3.641
					c-4.262,0.32-13.785,2.424-13.636,4.111c0.041,0.471-0.488-0.961-0.488-0.961l-2.296-5.729l-0.686-1.711L299.754,288.402z"/>
			</g>
			<path fill="#FFFFFF" d="M302.427,290.58c0.337-0.049-1.182-1.356,0.562-2.157c1.743-0.805,4.33-2.915,3.429-9.242
				c-0.898-6.33,5.621,0.098,5.79,0.2c0.171,0.101,0,8.387,0,8.387l-7.308,3.466L302.427,290.58z"/>
			<path fill="#A52323" d="M293.288,287.82c-0.898-0.201-2.698,0.1-1.573-2.012c1.125-2.107-0.507-14.311-8.799-14.311l0.479-1.158
				l7.308,1.106l1.35,2.61l1.012,3.315l1.237,6.73L293.288,287.82z"/>
			<path fill="#C1C7DD" d="M342.372,268.901c-3.822,0.201-5.644,0.246-5.644,0.246l-0.878,1.562c0,0-2.922,2.41-19.112,2.612
				c0,0-0.128-1.508-0.803-3.09c0,0-11.088,0-15.303,0c-1.46,0-2.59,0-3.451,0c-0.078-0.424-0.154-0.799-0.225-1.084
				c-0.039-0.152-0.082-0.296-0.127-0.436c0,0-0.288-0.776-0.422-1.026c-0.134-0.251-0.479-0.708-0.479-0.708
				c-0.906-1.099-2.155-1.428-3.396-1.438c-0.003-0.001-0.007-0.001-0.01-0.001c1.123,0,15.167-0.021,16.873-0.021
				c1.661,0,3.108,0.587,4.058,1.447l18.88,0.012c-0.396-0.015-2.358-0.009-2.886-0.009c0,0,0.107-0.533,1.354-1.14
				c0.817-0.398,3.021-0.289,2.869-0.289c0.394,0,8.086,0,9.459,0C344.505,265.539,345.001,268.763,342.372,268.901z"/>
			<g>
				<path fill="#B72C29" d="M322.588,270.67c-3.604,0-6.523-0.895-6.523-4.114v-7.946c0-3.219,2.92-5.828,6.523-5.828
					c3.602,0,6.522,2.609,6.522,5.828v7.946C329.11,269.775,326.189,270.67,322.588,270.67z"/>
			</g>
			<g>
				<path opacity="0.4" fill="#6F8BC1" d="M322.588,267.32c-3.604,0.634-6.523,0.883-6.523-1.675v-8.26
					c0-2.557,2.92-5.145,6.523-5.779c3.602-0.634,6.522,0.926,6.522,3.483v8.447C329.11,266.095,326.189,266.686,322.588,267.32z"/>
			</g>
			<g>
				<path fill="#F2493D" d="M361.586,238.385c0,6.047-3.139,10.995-6.975,10.995c-3.835,0-6.973-4.948-6.973-10.995v-0.82
					c0-6.048,3.138-10.995,6.973-10.995c3.836,0,6.975,4.947,6.975,10.995V238.385z"/>
				<path fill="#FFFFFF" d="M359.285,238.343c0,6.433-2.799,11.697-6.22,11.697c-3.419,0-6.217-5.264-6.217-11.697v-0.874
					c0-6.434,2.798-11.698,6.217-11.698c3.421,0,6.22,5.264,6.22,11.698V238.343z"/>
				<path fill="#FFFFFF" d="M354.705,226.199c-6.091-7.909-19.299-13.303-32.152-13.303c-12.855,0-25.97,5.35-32.085,13.208v23.421
					c6.115,7.857,18.186,13.208,32.085,13.208c13.952,0,26.062-5.394,32.152-13.303V226.199z"/>
				<path opacity="0.6" fill="#C1C7DD" d="M291.296,225.851c0.342,0,0.677,0.033,1.008,0.088c2.281-2.99,5.555-5.605,9.421-7.694
					c-1.419,1.205-1.904,1.498-3.707,3.876c-0.644,0.849-1.792,2.688-2.662,5.185c2.595,1.99,4.361,5.817,4.361,10.188
					c0,2.825-0.739,5.423-1.961,7.443c0.088,0.13,0.169,0.26,0.262,0.389c5.153,7.259,17.463,13.087,30.809,13.087
					c7.904,0,15.19-1.86,21.04-4.994c-6.4,5.439-16.038,8.906-26.827,8.906c-13.346,0-24.938-5.3-30.81-13.088v-0.177
					c-0.308,0.048-0.618,0.073-0.935,0.073c-4.631,0-8.421-5.237-8.421-11.64C282.875,231.09,286.665,225.851,291.296,225.851z"/>
				<path fill="#35212E" d="M352.54,233.158c0,5.191-4.495,9.439-9.986,9.439h-26.517c-5.491,0-9.986-4.249-9.986-9.439
					c0-5.191,4.495-9.438,9.986-9.438h26.517C348.045,223.72,352.54,227.967,352.54,233.158z"/>
				<path fill="#F2493D" d="M297.865,237.67c0,6.463-3.824,11.75-8.499,11.75s-8.5-5.287-8.5-11.75c0-6.461,3.825-11.748,8.5-11.748
					S297.865,231.208,297.865,237.67z"/>
				<g>
					
						<line fill="none" stroke="#38CE9C" stroke-width="3.7235" stroke-linecap="round" stroke-miterlimit="10" x1="318.59" y1="233.779" x2="322.624" y2="233.779"/>
					
						<line fill="none" stroke="#38CE9C" stroke-width="3.7235" stroke-linecap="round" stroke-miterlimit="10" x1="334.725" y1="233.779" x2="338.759" y2="233.779"/>
				</g>
			</g>
			<path opacity="0.3" fill="#F8F4F5" d="M353.421,226.47c0,2.85,0.246,6.609-23.702,6.609c-23.949,0-27.893-4.119-27.893-6.969
				c0-2.849,13.731-5.16,27.893-5.16C343.878,220.951,353.421,223.622,353.421,226.47z"/>
			<g>
				<path fill="#73798E" d="M329.401,252.944c6.259,0,12.458-1.092,17.926-3.158c0.62-0.233,0.933-0.926,0.697-1.545
					c-0.232-0.62-0.926-0.93-1.544-0.697c-10.377,3.921-23.701,3.932-34.091,0.027c-0.621-0.232-1.311,0.081-1.543,0.699
					c-0.232,0.62,0.081,1.311,0.7,1.544C316.997,251.861,323.171,252.944,329.401,252.944z"/>
			</g>
			<path fill="#B72C29" d="M286.983,226.564c-1.276,2.035-2.053,4.683-2.053,7.571c-0.001,6.373,3.771,11.587,8.382,11.587
				c0.821,0,1.615-0.169,2.367-0.477c-1.542,2.455-3.81,4.015-6.332,4.018c-4.61,0-8.381-5.215-8.381-11.587
				C280.967,232.438,283.516,227.985,286.983,226.564z"/>
		</g>
		<g>
			<path fill="#35212E" d="M311.173,441.131c0.66-0.885,3.215-3.607,1.813-5.006c-1.4-1.398-3.132-2.209-8.488-2.209
				c-5.357,0-10.385,5.375-10.385,5.816s0.165,2.135,0.989,2.061c0.825-0.072,6.347,1.326,6.347,1.326s6.84,0.955,7.253,0.221
				C309.112,442.604,311.173,441.131,311.173,441.131z"/>
			<g>
				<path fill="#35212E" d="M302.332,435.238c0,1.844-0.635,4.787-3.368,4.787l-1.073-0.055c0,0-1.615-0.129-1.615-0.754
					c0-1.35,1.615-4.176,1.615-4.344c0-0.223,1.903-0.883,1.903-0.883L302.332,435.238z"/>
				<path fill="#35212E" d="M310.06,438.406c-0.494,0-2.265,0.295-2.102-0.404c0.165-0.699-0.163-0.773-2.471-0.773
					s-3.462-0.109-3.628,0.664c-0.164,0.771-1.895,1.178-2.349,1.178c-0.452,0-1.813-0.959-1.648-1.51
					c0.165-0.553,1.401-1.916,1.401-1.916l2.843-0.111c0,0,4.534-0.035,4.904,0.076c0.371,0.109,2.884,0,2.884,0l1.113,0.553
					L310.06,438.406z"/>
			</g>
			<path fill="#F8F4F5" d="M311.297,440.211c0.823-1.18,2.522-3.158,0.426-3.693c-1.454-0.373-7.894-0.215-9.67-0.215
				c-4.949,0-4.978,5.682-9.462,3.986c-2.791-0.877-3.211-4.195-3.193-7.209v-40.748c0.041-6.484,5.937-6.412,13.185-6.412
				c0.024,0,0.052,0,0.076,0c7.282,0.035,13.153,0.039,13.111,6.543l-0.108,40.752c-0.021,2.957-1.356,5.781-3.581,7.438
				L311.297,440.211z"/>
			<path opacity="0.4" fill="#6F8BC1" d="M302.582,385.92c0.024,0,0.052,0,0.076,0c0.404,0.002,0.804,0.004,1.2,0.006
				c1.779,0.545,3.029,0.928,3.029,0.928c-0.99,1.275,0,1.865-3.077,1.865s-5.056,0-6.703,0c-1.648,0-3.407-0.098-3.407,8.346
				s0,33.857,0,35.525s0.549,1.963,4.176,1.963s9.011,0,11.208,0c1.963,0,6.024,0.707,5.698,2.676
				c-0.616,1.363-1.536,2.555-2.703,3.424l-0.783-0.441c0.823-1.18,2.522-3.158,0.426-3.693c-1.454-0.373-7.894-0.215-9.67-0.215
				c-4.949,0-4.978,5.682-9.462,3.986c-2.792-0.877-3.211-4.195-3.193-7.209v-40.748C289.438,385.848,295.334,385.92,302.582,385.92
				z"/>
			<path fill="#B72C29" d="M302.145,355.646c-2.604,0.418-4.576,2.453-4.564,4.896l0.082,25.59c0.013,2.73,2.494,2.734,5.547,2.734
				c0.007,0,0.015,0,0.021,0c3.063-0.014,5.538-0.039,5.524-2.775c0,0-0.066-7.32-0.066-8.531c0-1.057-4.32-19.764-5.694-21.697
				C302.794,355.58,302.174,355.643,302.145,355.646z"/>
			<path fill="#F2493D" d="M301.799,343.9c-3.48,0.557-6.118,3.281-6.103,6.549l0.11,32.377c0.017,3.648,3.334,2.76,7.417,2.76
				c0.011,0,0.022,0,0.031,0c4.097-0.014,7.403,0.846,7.387-2.816c0,0-0.09-22.332-0.09-23.953c0-1.41-5.777-12.041-7.615-14.625
				C302.667,343.812,301.838,343.895,301.799,343.9z"/>
		</g>
		<g>
			<ellipse fill="#B72C29" cx="265.872" cy="314.095" rx="7.392" ry="6.603"/>
			<path fill="#B72C29" d="M258.472,313.912c1.831-0.367,8.424-0.244,10.164-0.121c1.739,0.121,1.511-0.736,0.916-1.678
				c-0.595-0.939,1.557,0.613,1.647,0.859c0.092,0.244,1.466,2.086,1.466,2.74s-0.459,1.021-0.917,1.104
				c-0.457,0.082-6.592-0.613-6.592-0.613l-7.736-1.064L258.472,313.912z"/>
			<path fill="#B72C29" d="M265.872,307.49c-1.031,0-2.013,0.189-2.904,0.529c0.185,0.031,0.39,0.039,0.631,0.088
				c3.525,0.693,7.142,3.842,7.05,7.768c-0.025,1.115,0.458,1.781,1.173,2.125c0.902-1.094,1.441-2.441,1.441-3.904
				C273.264,310.447,269.955,307.49,265.872,307.49z"/>
			<path fill="#F8F4F5" d="M284.955,283.585c-0.044,1.999-0.472,4.362-1.415,6.795l-8.657,20.734l-1.676,3.934
				c-0.465-1.055-1.682-2.451-3.215-3.73c-1.775-1.471-3.971-2.779-5.932-3.213c-1.124-0.25-1.818,0.234-1.818,0.234l11.294-30.415
				c1.073-2.824,2.266-5.443,5.672-5.443c1.47,0,4.461,2.594,5.559,8.471C284.911,281.716,284.979,282.605,284.955,283.585z"/>
			<path fill="#CED2E3" d="M284.955,283.585c-0.044,1.999-0.472,4.362-1.415,6.795l-8.657,20.734l-1.676,3.934
				c-0.465-1.055-1.682-2.451-3.215-3.73C273.536,304.771,282.993,287.228,284.955,283.585z"/>
			<path fill="#F8F4F5" d="M278.745,372.92c-1.353-0.809-4.895-0.32-4.895-0.32l-4.447-3.396c0,0-0.448-3.367-0.063-4.082
				c0.531-0.986,2.199-0.395,2.393,0.523c0.428,2.021,0.677,2.139,1.445,3.256c0.489,0.711,1.824,1.891,2.631,1.986
				c1.595,0.188,1.817-0.781,1.817-0.781l-0.82-4.25c0,0-0.642-3.713-1.413-5.338c-0.922-1.941-4.793-6.449-4.793-6.449h-9.677
				c0,0-1.123,9.742-0.228,13.115c0.594,2.234,3.462,5.293,5.813,6.223c0.814,0.322,4.724,2.652,7.15,2.592
				c2.964-0.078,5.857-0.973,5.857-0.973S279.956,373.637,278.745,372.92z"/>
			<g>
				<path fill="#F2493D" d="M275.019,347.574c0.012,0.98-0.112,1.775-0.354,2.432c-0.968,2.613-3.873,2.91-8.131,2.949h-0.085
					c-2.911,0-5.176-0.049-6.846-0.635c-1.366-0.471-2.333-1.295-2.93-2.742c-0.359-0.875-0.77-2.049-1.172-3.455
					c-1.403-4.785-2.867-12.295-3.022-20.047c-0.049-2.365,0.024-4.752,0.267-7.092c0.572-5.623,5.269-5.725,13.74-4.463
					c5.263,0.783,8.527,1.285,8.924,3.891C276.979,328.598,275.019,347.574,275.019,347.574z"/>
			</g>
			<path fill="#B72C29" d="M270.515,351.982h-9.833c0.141,3.781,0.241,3.328,0.241,3.328s0.984,1.473,5.172,1.473
				c3.502,0,4.505-1.473,4.505-1.473S270.523,355.615,270.515,351.982z"/>
			<path fill="#B72C29" d="M274.666,350.006c-0.968,2.613-3.873,2.91-8.131,2.949h-0.085c-2.911,0-5.176-0.049-6.846-0.635
				l-0.938-2.326l-3.164-3.871c-1.403-4.785-2.867-12.295-3.022-20.047l3.183-0.488l11.481-1.445
				c3.624,0.824,4.245,4.031,3.519,6.303c-0.727,2.279-3.618,2.795-6.001,2.588c0,0,1.763,2.482,4.14,4.035
				c2.376,1.551,1.135-0.727,3.617,2.172c2.482,2.896,0.833,6.205-0.621,8.273C271.797,347.514,273.504,347.941,274.666,350.006z"/>
		</g>
		<path fill="#B72C29" d="M312.477,445.338c3.829,2.279,9.135,3.803,10.545,6.1c0,0,0,3.312,0,4.092s-0.45,1.42-1.186,1.42
			c-3.14,0-11.495,0-12.173,0c-0.836,0-2.815-0.186-4.47-0.576c-4.527-1.068-13.454-3.695-14.564-4.758
			c0,0-0.437-8.934,1.188-10.094c1.625-1.162,12.999-0.852,12.999-0.852L312.477,445.338z"/>
		<path fill="#F8F4F5" d="M309.821,450.35c1.431-0.496,3.329-0.979,5.336-0.979c5.096,0,7.864,2.066,7.864,2.066
			s-4.396-7.84-9.849-10.559c-6.035-3.006-18.2-1.865-21.355,0.643c-2.122,1.686,6.867,6.098,12.043,8.428
			C305.862,450.848,308.287,450.883,309.821,450.35z"/>
		<path opacity="0.4" fill="#6F8BC1" d="M291.817,441.521c1.73-1.375,6.166-2.338,10.816-2.434c-0.093,0.01,3.943-0.465,9.212,1.211
			c1.086,0.348-4.012-0.545-9.085-0.332c-7.984,0.336-4.722,2.84-3.027,4.283c0.971,0.824,2.771,2.006,5.895,3.824
			c3.125,1.816,4.756,1.91,6.892,1.492c0.594-0.119,1.183-0.158,1.636-0.158c-1.547,0.145-2.869,0.436-4.335,0.941
			c-1.536,0.529-3.959,0.498-5.961-0.4C298.685,447.619,289.696,443.207,291.817,441.521z"/>
		<path fill="#35212E" d="M309.743,455.271c0.695,0,9.285,0,12.514,0c0.307,0,0.564-0.111,0.765-0.295c0,0.428,0,0.787,0,0.986
			c0,0.779-0.45,1.42-1.186,1.42c-3.14,0-11.495,0-12.173,0h-5.202c-0.599,0-1.195-0.084-1.771-0.25l-12.033-3.475l-0.06-2.107
			l12.216,3.506c0.494,0.145,1.006,0.215,1.521,0.215H309.743z"/>
		<path fill="#B72C29" d="M301.799,343.9c0.037-0.006,0.787-0.078,1.09,0.242c-0.759,1.047-1.202,2.289-1.196,3.629l0.11,32.375
			c0.017,3.65,3.335,3.654,7.418,3.654c0.01,0,0.02,0,0.03,0c0.438-0.002,0.864-0.004,1.283-0.01
			c-0.58,2.637-3.609,2.674-7.28,2.688c-0.009,0-0.021,0-0.03,0c-4.083,0-7.4-0.004-7.417-3.652l-0.11-32.377
			C295.681,347.18,298.318,344.457,301.799,343.9z"/>
		<path fill="#F8F4F5" d="M455.49,301.293c-1.225-1.01-1.963-4.533-1.963-4.533l-4.727-3.066c0,0-3.348,0.719-3.895,1.326
			c-0.755,0.836,0.37,2.219,1.309,2.092c2.062-0.283,2.257-0.086,3.579,0.264c0.838,0.223,2.409,1.088,2.773,1.82
			c0.72,1.449-0.126,1.99-0.126,1.99l-4.307,0.662c0,0-3.738,0.65-5.541,0.471c-2.152-0.217-7.739-2.359-7.739-2.359l-3.281-9.176
			c0,0,8.856-4.367,12.359-4.661c2.32-0.197,6.19,1.488,7.869,3.4c0.583,0.663,4.116,3.581,4.881,5.901
			c0.933,2.838,1.067,5.885,1.067,5.885S456.583,302.195,455.49,301.293z"/>
		<g>
			<path fill="#F2493D" d="M429.017,306.775c0,0-7.607,3.643-15.707,6.674c-4.127,1.537-8.371,2.922-11.81,3.586
				c-1.322,0.254-2.382-0.373-3.432-1.67c-1.024-1.254-2.035-3.146-3.283-5.473c-4.07-7.604-5.565-12.096-0.427-14.549
				c11.207-5.342,25.17-6.901,30.334-6.645c3.499,0.174,4.728,3.11,6.515,8.122c0.013,0.027,0.026,0.059,0.032,0.088
				C433.001,301.973,433.659,305.168,429.017,306.775z"/>
		</g>
		<path fill="#B72C29" d="M431.671,301.008l-3.333-9.324c3.631-1.148,3.235-0.9,3.235-0.9s1.729,0.436,3.151,4.406
			c1.188,3.32,0.13,4.77,0.13,4.77S435.118,299.785,431.671,301.008z"/>
		<path fill="#B72C29" d="M353.229,445.338c3.83,2.279,9.134,3.803,10.544,6.1c0,0,0,3.312,0,4.092s-0.449,1.42-1.183,1.42
			c-3.143,0-11.497,0-12.175,0c-0.835,0-2.817-0.186-4.47-0.576c-4.527-1.068-13.453-3.695-14.563-4.758
			c0,0-0.438-8.934,1.188-10.094c1.625-1.162,12.998-0.852,12.998-0.852L353.229,445.338z"/>
		<path fill="#F8F4F5" d="M350.574,450.35c1.43-0.496,3.33-0.979,5.336-0.979c5.095,0,7.863,2.066,7.863,2.066
			s-4.396-7.84-9.848-10.559c-6.036-3.006-18.201-1.865-21.355,0.643c-2.12,1.686,6.865,6.098,12.043,8.428
			C346.615,450.848,349.04,450.883,350.574,450.35z"/>
		<path opacity="0.4" fill="#6F8BC1" d="M332.57,441.521c1.729-1.375,6.166-2.338,10.815-2.434c-0.092,0.01,3.944-0.465,9.212,1.211
			c1.088,0.348-4.011-0.545-9.084-0.332c-7.984,0.336-4.723,2.84-3.026,4.283c0.97,0.824,2.771,2.006,5.896,3.824
			c3.125,1.816,4.756,1.91,6.891,1.492c0.594-0.119,1.183-0.158,1.636-0.158c-1.547,0.145-2.868,0.436-4.335,0.941
			c-1.535,0.529-3.959,0.498-5.961-0.4C339.436,447.619,330.45,443.207,332.57,441.521z"/>
		<path fill="#35212E" d="M350.496,455.271c0.696,0,9.282,0,12.514,0c0.308,0,0.564-0.111,0.764-0.295c0,0.428,0,0.787,0,0.986
			c0,0.779-0.449,1.42-1.183,1.42c-3.143,0-11.497,0-12.175,0h-5.201c-0.6,0-1.196-0.084-1.772-0.25l-12.032-3.475l-0.06-2.107
			l12.215,3.506c0.494,0.145,1.007,0.215,1.521,0.215H350.496z"/>
		<path fill="#B72C29" d="M413.31,313.449c-4.127,1.537-8.371,2.922-11.81,3.586c-1.322,0.254-2.382-0.373-3.432-1.67
			c4.952-2.357,8.701-7.838,9.743-12.896l5.119,5.588L413.31,313.449z"/>
	</g>
	
		<line fill="none" stroke="#EF8B6C" stroke-width="26.6852" stroke-linecap="round" stroke-miterlimit="10" x1="412.674" y1="334.48" x2="415.569" y2="322.482"/>
	<path fill="#D36853" d="M400.988,326.117c3.45-3.594,16.601-2.082,25.751-2.082c10.705,0,14.21-4.547,15.451-12.148
		c0.263-1.609-0.542,6.643-8.404,2.848c-7.014-3.389-22.162-5.545-24.112-4.973c-3.34,0.977-5.641,3.221-6.694,7.533
		C402.008,321.271,400.988,326.117,400.988,326.117z"/>
	<path fill="none" stroke="#FCB295" stroke-width="10.55" stroke-linecap="round" stroke-miterlimit="10" d="M411.451,315.025
		c1.325-4.861,2.431-6.852,1.325-12.4"/>
	<path fill="none" stroke="#FCB295" stroke-width="10.55" stroke-linecap="round" stroke-miterlimit="10" d="M420.951,315.025
		c1.587-5.818,2.855-7.52,0.403-16.137"/>
	<path fill="none" stroke="#FCB295" stroke-width="10.55" stroke-linecap="round" stroke-miterlimit="10" d="M430.451,315.025
		c1.47-5.385,2.667-7.246,0.889-14.326"/>
	<g>
		<path fill="#FCB295" d="M234.513,343.119c-1.025-13.551-0.155-20.326,4.713-22.887c1.139-0.6,2.189-1.574,3.686-1.49l21.066,2.631
			c2.238,0.125,4.421,1.098,5.675,2.723c0.959,1.244,1.197,2.568,0.762,3.965c-0.612,1.969-2.775,3.248-5.238,3.328
			c-0.007,0-0.013,0-0.02,0l-9.062-0.736c-0.94,0.031-1.531,0.299-1.4,1.09l0,0c0.105,0.641,0.791,0.762,1.554,0.881l12.969,2.428
			c4.427,1.318,5.147,7.635,0.609,9.266c-0.095,0.035-0.085,0.143,0.016,0.174c4.424,1.475,4.568,8.068-1.642,9.094
			c-0.091,0.018-0.115,0.107-0.044,0.162c3.733,2.859,0.862,7.738-3.839,7.729c-7.009-0.385-13.726-0.916-19.836-1.543
			C238.107,359.281,235.122,351.156,234.513,343.119z"/>
	</g>
	<g>
		<g>
			<path fill="#69798B" d="M185.003,454.195c2.931-1.121,7.385-1.836,9.946-1.59l115.799,11.141c2.56,0.244,2.261,1.354-0.67,2.479
				l-58.352,22.092c-2.931,1.123-7.386,1.836-9.947,1.588l-115.8-11.139c-2.562-0.244-2.262-1.355,0.671-2.479L185.003,454.195z"/>
		</g>
		<g>
			<polygon fill="#32292F" points="307.725,462.258 307.749,455.9 135.583,468.176 135.987,474.646 			"/>
			<path fill="#332C31" d="M190.334,453.059c2.932-1.123,7.385-1.834,9.946-1.59l105.737,10.127c2.562,0.246,2.263,1.357-0.67,2.479
				l-51.935,19.902c-2.931,1.123-7.386,1.832-9.946,1.588l-105.737-10.127c-2.563-0.246-2.263-1.355,0.669-2.48L190.334,453.059z"/>
			<path fill="#777C84" d="M190.334,446.635c2.932-1.125,7.385-1.838,9.948-1.592l105.735,10.129
				c2.562,0.246,2.263,1.355-0.67,2.477l-51.935,19.9c-2.931,1.123-7.386,1.834-9.946,1.59l-105.737-10.127
				c-2.563-0.246-2.263-1.355,0.669-2.479L190.334,446.635z"/>
			<g>
				<path fill="#FFFFFF" d="M256.962,464.133c0.953,7.576-4.167,13.217-11.434,12.602l-101.14-8.582
					c-7.268-0.617-13.932-7.26-14.885-14.834l-13.774-76.678c-0.955-7.576,4.167-13.213,11.433-12.598l105.053,9.951
					c7.265,0.615,13.929,7.256,14.884,14.83L256.962,464.133z"/>
				<path fill="#514C4F" d="M255.571,464.688c0.952,7.578-5.827,14.529-13.093,13.912l-99.48-9.891
					c-7.268-0.615-13.933-7.26-14.886-14.834l-12.711-75.744c-0.954-7.576,4.167-13.217,11.434-12.602l103.989,9.951
					c7.266,0.617,13.929,7.258,14.884,14.834L255.571,464.688z"/>
				<path fill="#3F363C" d="M250.031,467.936c0.953,7.576-4.168,13.219-11.437,12.602l-101.139-8.582
					c-7.269-0.615-13.929-7.254-14.883-14.832l-9.865-75.746c-0.952-7.576,4.167-13.219,11.435-12.602l101.139,9.951
					c7.268,0.617,13.933,7.258,14.886,14.834L250.031,467.936z"/>
				<path fill="#FFFFFF" d="M184.171,424.594c0.543,4.324-2.381,7.543-6.53,7.191c-4.148-0.352-7.951-4.143-8.493-8.469
					c-0.545-4.322,2.375-7.543,6.524-7.191C179.822,416.477,183.626,420.271,184.171,424.594z"/>
			</g>
		</g>
	</g>
	<path fill="#D3D3D3" d="M337.363,307.324v2.047c0,0.986-0.802,1.787-1.789,1.787h-12.721c-0.986,0-1.787-0.801-1.787-1.787v-2.047
		c0-0.988,0.801-1.789,1.787-1.789h12.721C336.562,305.535,337.363,306.336,337.363,307.324z"/>
	<path fill="#A52323" d="M337.798,309.807l-0.658,2.047c-0.36,1.123-1.534,2.004-2.663,2.004h-12.722
		c-0.563,0-1.03-0.225-1.322-0.619c-0.303-0.418-0.372-0.994-0.186-1.578l0.657-2.043c0.045-0.129,0.1-0.258,0.162-0.383v0.137
		c0,0.986,0.801,1.787,1.787,1.787h12.721c0.987,0,1.789-0.801,1.789-1.787v-1.408c0.092,0.08,0.179,0.166,0.255,0.271
		C337.921,308.652,337.984,309.221,337.798,309.807z"/>
	<path fill="#777C84" d="M337.363,307.963v1.408c0,0.986-0.802,1.787-1.789,1.787h-12.721c-0.986,0-1.787-0.801-1.787-1.787v-0.137
		c0.478-0.932,1.501-1.621,2.501-1.621h12.722C336.711,307.613,337.077,307.73,337.363,307.963z"/>
	<path fill="#332C31" d="M333.895,310.535h-9.617c-0.747,0-1.352-0.604-1.352-1.352v-1.547c-0.001-0.744,0.604-1.352,1.351-1.352
		h9.617c0.745,0,1.35,0.604,1.35,1.352v1.547C335.243,309.93,334.64,310.535,333.895,310.535z"/>
	<path fill="#3F363C" d="M337.172,310.535h-9.615c-0.746,0-1.351-0.604-1.351-1.352v-1.547c0-0.744,0.604-1.352,1.351-1.352h9.615
		c0.748,0,1.352,0.604,1.352,1.352v1.547C338.523,309.93,337.92,310.535,337.172,310.535z"/>
	<path fill="none" stroke="#3F363C" stroke-width="3.1029" stroke-miterlimit="10" d="M331.688,308.109h1.344l0.366,142.838
		c0,7.408,2.767,10.379,8.504,10.379h7.488c7.041,0,8.603,2.363,12.072,6.463l0,0c3.84,3.854,5.081,6.738-6.4,6.738h-67.954"/>
</g>
</svg>
